
 
http://www.imdb.com/title/tt1905041/



Plot: Agent Luke Hobbs enlists Dominic Toretto and his team to bring down former Special Ops soldier Owen Shaw, leader of a unit specializing in vehicular warfare. 



Director:
 Justin Lin 

Writers:
 Chris Morgan (screenplay), Gary Scott Thompson (characters) 

Stars:
 Dwayne Johnson, Vin Diesel, Paul Walker

Genres:
  Action |  Crime |  Thriller 

Country:
 USA 

Language:
 English 


Format                                   : AVI
Format/Info                              : Audio Video Interleave
Format profile                           : OpenDML
Format settings                          : rec
File size                                : 2.47 GiB
Duration                                 : 2h 0mn
Overall bit rate                         : 2 922 Kbps
Writing application                      : AVI-Mux GUI 1.17.8.3, Feb 16 201019:42:50

Video
ID                                       : 0
Format                                   : MPEG-4 Visual
Format profile                           : Advanced Simple@L5
Format settings, BVOP                    : 1
Format settings, QPel                    : No
Format settings, GMC                     : No warppoints
Format settings, Matrix                  : Default (H.263)
Muxing mode                              : Packed bitstream
Codec ID                                 : XVID
Codec ID/Hint                            : XviD
Duration                                 : 2h 0mn
Bit rate                                 : 2 721 Kbps
Width                                    : 720 pixels
Height                                   : 320 pixels
Display aspect ratio                     : 2.25:1
Frame rate                               : 50.000 fps
Color space                              : YUV
Chroma subsampling                       : 4:2:0
Bit depth                                : 8 bits
Scan type                                : Progressive
Compression mode                         : Lossy
Bits/(Pixel*Frame)                       : 0.236
Stream size                              : 2.30 GiB (93%)
Writing library                          : XviD 64

Audio
ID                                       : 1
Format                                   : AC-3
Format/Info                              : Audio Coding 3
Mode extension                           : CM (complete main)
Format settings, Endianness              : Big
Codec ID                                 : 2000
Duration                                 : 2h 0mn
Bit rate mode                            : Constant
Bit rate                                 : 192 Kbps
Channel(s)                               : 2 channels
Channel positions                        : Front: L R
Sampling rate                            : 48.0 KHz
Bit depth                                : 16 bits
Compression mode                         : Lossy
Stream size                              : 166 MiB (7%)
Alignment                                : Aligned on interleaves
Interleave, duration                     : 64 ms (3.20 video frames)
Interleave, preload duration             : 192 ms
Title                                    : Fast.and.furious.6.2013 cam-Audio


info


    	http://addpix.net/viewer.php?file=25919357681672975986.png


screens



    	http://addpix.net/viewer.php?file=47707405235201795821.jpg
    	http://addpix.net/viewer.php?file=24542784312787311960.jpg
    	http://addpix.net/viewer.php?file=22669693066230193397.jpg
    	http://addpix.net/viewer.php?file=12391275019422290027.jpg
    	http://addpix.net/viewer.php?file=11113625318036774721.jpg
    	http://addpix.net/viewer.php?file=31603470540715659635.jpg
